<?xml version="1.0" encoding="utf-8"?>
<!-- Generator: Adobe Illustrator 25.4.1, SVG Export Plug-In . SVG Version: 6.00 Build 0)  -->
<svg version="1.1" id="Layer_1" xmlns="http://www.w3.org/2000/svg" xmlns:xlink="http://www.w3.org/1999/xlink" x="0px" y="0px"
	 viewBox="0 0 56.27 56.27" style="enable-background:new 0 0 56.27 56.27;" xml:space="preserve">
<style type="text/css">
	.st0{fill:#ED1C24;}
	.st1{fill:#3A52A4;}
</style>
<g>
	<rect x="48.23" class="st0" width="8.04" height="8.04"/>
	<polygon class="st0" points="40.19,8.04 40.19,0 32.15,0 32.15,8.04 32.15,16.08 32.15,24.11 40.19,24.11 48.23,24.11 56.27,24.11 
		56.27,16.08 48.23,16.08 48.23,8.04 	"/>
	<rect x="24.11" y="24.11" class="st0" width="8.04" height="8.04"/>
	<polygon class="st0" points="8.04,32.15 0,32.15 0,40.19 8.04,40.19 8.04,48.23 16.08,48.23 16.08,56.27 24.11,56.27 24.11,48.23 
		24.11,40.19 24.11,32.15 16.08,32.15 	"/>
	<rect y="48.23" class="st0" width="8.04" height="8.04"/>
</g>
<g>
	<rect class="st1" width="8.04" height="8.04"/>
	<polygon class="st1" points="16.08,8.04 8.04,8.04 8.04,16.08 0,16.08 0,24.11 8.04,24.11 16.08,24.11 24.11,24.11 24.11,16.08 
		24.11,8.04 24.11,0 16.08,0 	"/>
	<polygon class="st1" points="56.27,40.19 56.27,32.15 48.23,32.15 40.19,32.15 32.15,32.15 32.15,40.19 32.15,48.23 32.15,56.27 
		40.19,56.27 40.19,48.23 48.23,48.23 48.23,40.19 	"/>
	<rect x="48.23" y="48.23" class="st1" width="8.04" height="8.04"/>
</g>
</svg>
